<mxfile host="app.diagrams.net" modified="2023-09-20T02:37:42.989Z" agent="Mozilla/5.0 (Windows NT 10.0; Win64; x64) AppleWebKit/537.36 (KHTML, like Gecko) Chrome/116.0.0.0 Safari/537.36" etag="BZOONkc99p2HyfxubTYJ" version="21.7.5" type="device">
  <diagram name="Page-1" id="2c0d36ab-eaac-3732-788b-9136903baeff">
    <mxGraphModel dx="5413.5" dy="1993" grid="1" gridSize="10" guides="1" tooltips="1" connect="1" arrows="1" fold="1" page="1" pageScale="1.5" pageWidth="1169" pageHeight="827" background="none" math="0" shadow="0">
      <root>
        <mxCell id="0" />
        <mxCell id="1" parent="0" />
        <mxCell id="a1PtxgZvtLgDx27lb-P5-233" value="" style="fillColor=#ffcd28;strokeColor=#d79b00;opacity=30;fontSize=19;gradientColor=#ffa500;" parent="1" vertex="1">
          <mxGeometry x="-20" y="1690" width="2480" height="160" as="geometry" />
        </mxCell>
        <mxCell id="a1PtxgZvtLgDx27lb-P5-223" value="" style="rounded=0;whiteSpace=wrap;html=1;fillColor=none;" parent="1" vertex="1">
          <mxGeometry x="1670" y="430" width="790" height="1420" as="geometry" />
        </mxCell>
        <mxCell id="a1PtxgZvtLgDx27lb-P5-192" value="" style="fillColor=#cdeb8b;strokeColor=#36393d;opacity=30;" parent="1" vertex="1">
          <mxGeometry x="-20" y="1130" width="2480" height="560" as="geometry" />
        </mxCell>
        <mxCell id="a1PtxgZvtLgDx27lb-P5-190" value="" style="group" parent="1" vertex="1" connectable="0">
          <mxGeometry x="-20" y="430" width="2480" height="1420" as="geometry" />
        </mxCell>
        <mxCell id="a1PtxgZvtLgDx27lb-P5-222" value="" style="rounded=0;whiteSpace=wrap;html=1;fillColor=none;" parent="a1PtxgZvtLgDx27lb-P5-190" vertex="1">
          <mxGeometry x="1000" width="690" height="1420" as="geometry" />
        </mxCell>
        <mxCell id="a1PtxgZvtLgDx27lb-P5-221" value="" style="rounded=0;whiteSpace=wrap;html=1;fillColor=none;" parent="a1PtxgZvtLgDx27lb-P5-190" vertex="1">
          <mxGeometry x="500" width="500" height="1420" as="geometry" />
        </mxCell>
        <mxCell id="a1PtxgZvtLgDx27lb-P5-220" value="" style="rounded=0;whiteSpace=wrap;html=1;fillColor=none;" parent="a1PtxgZvtLgDx27lb-P5-190" vertex="1">
          <mxGeometry width="500" height="1420" as="geometry" />
        </mxCell>
        <mxCell id="a1PtxgZvtLgDx27lb-P5-167" value="" style="fillColor=#f5f5f5;strokeColor=#666666;opacity=30;fontColor=#333333;" parent="a1PtxgZvtLgDx27lb-P5-190" vertex="1">
          <mxGeometry y="600" width="2480" height="99.99999999999994" as="geometry" />
        </mxCell>
        <mxCell id="a1PtxgZvtLgDx27lb-P5-168" value="" style="fillColor=#dae8fc;strokeColor=#6c8ebf;opacity=30;" parent="a1PtxgZvtLgDx27lb-P5-190" vertex="1">
          <mxGeometry y="500" width="2480" height="99.99999999999994" as="geometry" />
        </mxCell>
        <mxCell id="a1PtxgZvtLgDx27lb-P5-169" value="" style="fillColor=#d5e8d4;strokeColor=#82b366;opacity=30;" parent="a1PtxgZvtLgDx27lb-P5-190" vertex="1">
          <mxGeometry y="100" width="2480" height="99.99999999999994" as="geometry" />
        </mxCell>
        <mxCell id="a1PtxgZvtLgDx27lb-P5-170" value="" style="fillColor=#ffe6cc;strokeColor=#d79b00;opacity=30;" parent="a1PtxgZvtLgDx27lb-P5-190" vertex="1">
          <mxGeometry width="2480" height="99.99999999999994" as="geometry" />
        </mxCell>
        <mxCell id="a1PtxgZvtLgDx27lb-P5-171" value="" style="fillColor=#fff2cc;strokeColor=#d6b656;opacity=30;" parent="a1PtxgZvtLgDx27lb-P5-190" vertex="1">
          <mxGeometry y="200" width="2480" height="99.99999999999994" as="geometry" />
        </mxCell>
        <mxCell id="a1PtxgZvtLgDx27lb-P5-172" value="" style="fillColor=#f8cecc;strokeColor=#b85450;opacity=30;" parent="a1PtxgZvtLgDx27lb-P5-190" vertex="1">
          <mxGeometry y="300" width="2480" height="99.99999999999994" as="geometry" />
        </mxCell>
        <mxCell id="a1PtxgZvtLgDx27lb-P5-173" value="" style="fillColor=#e1d5e7;strokeColor=#9673a6;opacity=30;" parent="a1PtxgZvtLgDx27lb-P5-190" vertex="1">
          <mxGeometry y="400" width="2480" height="99.99999999999994" as="geometry" />
        </mxCell>
        <mxCell id="a1PtxgZvtLgDx27lb-P5-177" value="Complete the tutorial" style="rounded=1;fontStyle=1;fontFamily=Tahoma;fontSize=19;whiteSpace=wrap;" parent="a1PtxgZvtLgDx27lb-P5-190" vertex="1">
          <mxGeometry x="170" y="20" width="197.6" height="450" as="geometry" />
        </mxCell>
        <mxCell id="a1PtxgZvtLgDx27lb-P5-178" value="Build and test on mobile" style="rounded=1;fontStyle=1;fontFamily=Tahoma;fontSize=19;whiteSpace=wrap;" parent="a1PtxgZvtLgDx27lb-P5-190" vertex="1">
          <mxGeometry x="170" y="710" width="197.6" height="80" as="geometry" />
        </mxCell>
        <mxCell id="a1PtxgZvtLgDx27lb-P5-179" value="Technical specifications" style="rounded=1;fontStyle=1;fontFamily=Tahoma;fontSize=19;whiteSpace=wrap;" parent="a1PtxgZvtLgDx27lb-P5-190" vertex="1">
          <mxGeometry x="740" y="20" width="180" height="770" as="geometry" />
        </mxCell>
        <mxCell id="a1PtxgZvtLgDx27lb-P5-175" value="List of assets and their formats" style="rounded=1;fontStyle=1;fontFamily=Tahoma;fontSize=19;whiteSpace=wrap;" parent="a1PtxgZvtLgDx27lb-P5-190" vertex="1">
          <mxGeometry x="1410" y="20" width="190" height="770" as="geometry" />
        </mxCell>
        <mxCell id="a1PtxgZvtLgDx27lb-P5-209" value="Implement a 3D environment" style="rounded=1;fontStyle=1;fontFamily=Tahoma;fontSize=19;whiteSpace=wrap;" parent="a1PtxgZvtLgDx27lb-P5-190" vertex="1">
          <mxGeometry x="2089.9964495457325" y="510" width="216.65947638019352" height="80" as="geometry" />
        </mxCell>
        <mxCell id="a1PtxgZvtLgDx27lb-P5-212" value="Demonstrate visual effects" style="rounded=1;fontStyle=1;fontFamily=Tahoma;fontSize=19;whiteSpace=wrap;" parent="a1PtxgZvtLgDx27lb-P5-190" vertex="1">
          <mxGeometry x="2089.9964495457325" y="410" width="216.65947638019352" height="80" as="geometry" />
        </mxCell>
        <mxCell id="a1PtxgZvtLgDx27lb-P5-215" value="Commented source code" style="rounded=1;fontStyle=1;fontFamily=Tahoma;fontSize=19;whiteSpace=wrap;" parent="a1PtxgZvtLgDx27lb-P5-190" vertex="1">
          <mxGeometry x="2089.9964495457325" y="710" width="216.65947638019352" height="80" as="geometry" />
        </mxCell>
        <mxCell id="a1PtxgZvtLgDx27lb-P5-216" value="Utilise 3D, audio and physics libraries of Unity" style="rounded=1;fontStyle=1;fontFamily=Tahoma;fontSize=19;whiteSpace=wrap;" parent="a1PtxgZvtLgDx27lb-P5-190" vertex="1">
          <mxGeometry x="1770" y="20" width="216.66" height="670" as="geometry" />
        </mxCell>
        <mxCell id="a1PtxgZvtLgDx27lb-P5-174" value="Technical description" style="rounded=1;fontStyle=1;fontFamily=Tahoma;fontSize=19;whiteSpace=wrap;" parent="a1PtxgZvtLgDx27lb-P5-190" vertex="1">
          <mxGeometry x="1120" y="20" width="216.66" height="770" as="geometry" />
        </mxCell>
        <mxCell id="a1PtxgZvtLgDx27lb-P5-225" value="Include animated 3D gameplay objects" style="rounded=1;fontStyle=1;fontFamily=Tahoma;fontSize=19;whiteSpace=wrap;" parent="a1PtxgZvtLgDx27lb-P5-190" vertex="1">
          <mxGeometry x="2090" y="20" width="216.66" height="260" as="geometry" />
        </mxCell>
        <mxCell id="a1PtxgZvtLgDx27lb-P5-227" value="Implement a GUI" style="rounded=1;fontStyle=1;fontFamily=Tahoma;fontSize=19;whiteSpace=wrap;" parent="a1PtxgZvtLgDx27lb-P5-190" vertex="1">
          <mxGeometry x="2089.9964495457325" y="610" width="216.65947638019352" height="80" as="geometry" />
        </mxCell>
        <mxCell id="a1PtxgZvtLgDx27lb-P5-230" value="Testing and bug reporting" style="rounded=1;fontStyle=1;fontFamily=Tahoma;fontSize=19;whiteSpace=wrap;" parent="a1PtxgZvtLgDx27lb-P5-190" vertex="1">
          <mxGeometry x="2089.9964495457325" y="810.5" width="216.65947638019352" height="80" as="geometry" />
        </mxCell>
        <mxCell id="2" value="Prototype build" style="rounded=1;fillColor=#0050ef;strokeColor=#001DBC;fontStyle=1;fontFamily=Tahoma;fontSize=19;fontColor=#ffffff;" parent="1" vertex="1">
          <mxGeometry x="970" y="130" width="237.5" height="100" as="geometry" />
        </mxCell>
        <mxCell id="4" value="Assessment 4: &#xa;Create, test &amp; deploy" style="rounded=1;fillColor=#1ba1e2;strokeColor=#006EAF;fontColor=#ffffff;fontStyle=1;fontFamily=Tahoma;fontSize=19;whiteSpace=wrap;" parent="1" vertex="1">
          <mxGeometry x="1919.9999999999998" y="300" width="190" height="80" as="geometry" />
        </mxCell>
        <mxCell id="9" value="" style="edgeStyle=elbowEdgeStyle;elbow=vertical;strokeWidth=2;rounded=0" parent="1" source="2" target="4" edge="1">
          <mxGeometry x="337" y="215.5" width="100" height="100" as="geometry">
            <mxPoint x="337" y="280" as="sourcePoint" />
            <mxPoint x="437" y="180" as="targetPoint" />
          </mxGeometry>
        </mxCell>
        <mxCell id="12" value="Assessment 2: &#xa;Research workbook" style="rounded=1;fillColor=#1ba1e2;strokeColor=#006EAF;fontColor=#ffffff;fontStyle=1;fontFamily=Tahoma;fontSize=19;whiteSpace=wrap;" parent="1" vertex="1">
          <mxGeometry x="579.9999999999999" y="300" width="190" height="80" as="geometry" />
        </mxCell>
        <mxCell id="59" value="" style="edgeStyle=elbowEdgeStyle;elbow=vertical;strokeWidth=2;rounded=0" parent="1" source="2" target="12" edge="1">
          <mxGeometry x="347" y="225.5" width="100" height="100" as="geometry">
            <mxPoint x="861.9999999999999" y="240" as="sourcePoint" />
            <mxPoint x="1466.9999999999998" y="310" as="targetPoint" />
          </mxGeometry>
        </mxCell>
        <mxCell id="61" value="" style="edgeStyle=elbowEdgeStyle;elbow=vertical;strokeWidth=2;rounded=0" parent="1" source="2" edge="1">
          <mxGeometry x="-23" y="135.5" width="100" height="100" as="geometry">
            <mxPoint x="-23" y="200" as="sourcePoint" />
            <mxPoint x="115" y="300.0000000000002" as="targetPoint" />
          </mxGeometry>
        </mxCell>
        <mxCell id="a1PtxgZvtLgDx27lb-P5-127" value="Assessment 3:&#xa;Technical design document" style="rounded=1;fillColor=#1ba1e2;strokeColor=#006EAF;fontColor=#ffffff;fontStyle=1;fontFamily=Tahoma;fontSize=19;whiteSpace=wrap;" parent="1" vertex="1">
          <mxGeometry x="1260" y="300" width="190" height="80" as="geometry" />
        </mxCell>
        <mxCell id="a1PtxgZvtLgDx27lb-P5-158" value="" style="edgeStyle=elbowEdgeStyle;elbow=vertical;strokeWidth=2;rounded=0;exitX=0.5;exitY=1;exitDx=0;exitDy=0;entryX=0.5;entryY=0;entryDx=0;entryDy=0;" parent="1" source="2" target="a1PtxgZvtLgDx27lb-P5-127" edge="1">
          <mxGeometry x="347" y="225.5" width="100" height="100" as="geometry">
            <mxPoint x="862" y="240.5" as="sourcePoint" />
            <mxPoint x="667" y="310.5" as="targetPoint" />
          </mxGeometry>
        </mxCell>
        <mxCell id="a1PtxgZvtLgDx27lb-P5-160" value="Environment" style="fillColor=#dae8fc;strokeColor=#6c8ebf;opacity=30;fontSize=19;" parent="1" vertex="1">
          <mxGeometry x="-230" y="930" width="210" height="99.99999999999994" as="geometry" />
        </mxCell>
        <mxCell id="a1PtxgZvtLgDx27lb-P5-161" value="Character" style="fillColor=#d5e8d4;strokeColor=#82b366;opacity=30;fontSize=19;" parent="1" vertex="1">
          <mxGeometry x="-230" y="530" width="210" height="99.99999999999994" as="geometry" />
        </mxCell>
        <mxCell id="a1PtxgZvtLgDx27lb-P5-162" value="Objects" style="fillColor=#ffe6cc;strokeColor=#d79b00;opacity=30;fontSize=19;" parent="1" vertex="1">
          <mxGeometry x="-230" y="430" width="210" height="99.99999999999994" as="geometry" />
        </mxCell>
        <mxCell id="a1PtxgZvtLgDx27lb-P5-163" value="Animation" style="fillColor=#fff2cc;strokeColor=#d6b656;opacity=30;fontSize=19;" parent="1" vertex="1">
          <mxGeometry x="-230" y="630" width="210" height="99.99999999999994" as="geometry" />
        </mxCell>
        <mxCell id="a1PtxgZvtLgDx27lb-P5-164" value="Sound" style="fillColor=#f8cecc;strokeColor=#b85450;opacity=30;fontSize=19;" parent="1" vertex="1">
          <mxGeometry x="-230" y="730" width="210" height="99.99999999999994" as="geometry" />
        </mxCell>
        <mxCell id="a1PtxgZvtLgDx27lb-P5-165" value="Visual effects" style="fillColor=#e1d5e7;strokeColor=#9673a6;opacity=30;fontSize=19;" parent="1" vertex="1">
          <mxGeometry x="-230" y="830" width="210" height="99.99999999999994" as="geometry" />
        </mxCell>
        <mxCell id="a1PtxgZvtLgDx27lb-P5-166" value="User Interface" style="fillColor=#f5f5f5;strokeColor=#666666;opacity=30;fontColor=#333333;fontSize=19;" parent="1" vertex="1">
          <mxGeometry x="-230" y="1030" width="210" height="99.99999999999994" as="geometry" />
        </mxCell>
        <mxCell id="a1PtxgZvtLgDx27lb-P5-191" value="Build" style="fillColor=#cdeb8b;strokeColor=#36393d;opacity=30;fontSize=19;" parent="1" vertex="1">
          <mxGeometry x="-230" y="1130" width="210" height="560" as="geometry" />
        </mxCell>
        <mxCell id="a1PtxgZvtLgDx27lb-P5-196" value="Assessment 1:&#xa;Visual effects tutorial" style="rounded=1;fillColor=#1ba1e2;strokeColor=#006EAF;fontColor=#ffffff;fontStyle=1;fontFamily=Tahoma;fontSize=19;whiteSpace=wrap;" parent="1" vertex="1">
          <mxGeometry x="10" y="300" width="190" height="80" as="geometry" />
        </mxCell>
        <mxCell id="a1PtxgZvtLgDx27lb-P5-198" value="" style="edgeStyle=segmentEdgeStyle;endArrow=classic;html=1;curved=0;rounded=0;endSize=8;startSize=8;entryX=0;entryY=0.5;entryDx=0;entryDy=0;exitX=0.5;exitY=1;exitDx=0;exitDy=0;" parent="1" source="a1PtxgZvtLgDx27lb-P5-196" target="a1PtxgZvtLgDx27lb-P5-178" edge="1">
          <mxGeometry width="50" height="50" relative="1" as="geometry">
            <mxPoint x="230" y="1330" as="sourcePoint" />
            <mxPoint x="280" y="1280" as="targetPoint" />
            <Array as="points">
              <mxPoint x="105" y="1180" />
            </Array>
          </mxGeometry>
        </mxCell>
        <mxCell id="a1PtxgZvtLgDx27lb-P5-199" value="" style="edgeStyle=segmentEdgeStyle;endArrow=classic;html=1;curved=0;rounded=0;endSize=8;startSize=8;entryX=0;entryY=0.5;entryDx=0;entryDy=0;exitX=0.5;exitY=1;exitDx=0;exitDy=0;" parent="1" source="a1PtxgZvtLgDx27lb-P5-196" target="a1PtxgZvtLgDx27lb-P5-177" edge="1">
          <mxGeometry width="50" height="50" relative="1" as="geometry">
            <mxPoint x="115" y="426" as="sourcePoint" />
            <mxPoint x="163" y="1190" as="targetPoint" />
            <Array as="points">
              <mxPoint x="105" y="675" />
            </Array>
          </mxGeometry>
        </mxCell>
        <mxCell id="a1PtxgZvtLgDx27lb-P5-200" value="" style="edgeStyle=segmentEdgeStyle;endArrow=classic;html=1;curved=0;rounded=0;endSize=8;startSize=8;entryX=0;entryY=0.5;entryDx=0;entryDy=0;exitX=0.5;exitY=1;exitDx=0;exitDy=0;" parent="1" source="12" target="a1PtxgZvtLgDx27lb-P5-179" edge="1">
          <mxGeometry width="50" height="50" relative="1" as="geometry">
            <mxPoint x="500.06999999999994" y="426" as="sourcePoint" />
            <mxPoint x="548.0699999999999" y="685" as="targetPoint" />
            <Array as="points">
              <mxPoint x="675" y="835" />
            </Array>
          </mxGeometry>
        </mxCell>
        <mxCell id="a1PtxgZvtLgDx27lb-P5-182" value="Installers and installation" style="rounded=1;fontStyle=1;fontFamily=Tahoma;fontSize=19;whiteSpace=wrap;" parent="1" vertex="1">
          <mxGeometry x="720" y="1250" width="180" height="80" as="geometry" />
        </mxCell>
        <mxCell id="a1PtxgZvtLgDx27lb-P5-184" value="Documented issues" style="rounded=1;fontStyle=1;fontFamily=Tahoma;fontSize=19;whiteSpace=wrap;" parent="1" vertex="1">
          <mxGeometry x="720" y="1360" width="180" height="80" as="geometry" />
        </mxCell>
        <mxCell id="a1PtxgZvtLgDx27lb-P5-183" value="Libraries or frameworks and their restrictions" style="rounded=1;fontStyle=1;fontFamily=Tahoma;fontSize=19;whiteSpace=wrap;" parent="1" vertex="1">
          <mxGeometry x="720" y="1470" width="180" height="80" as="geometry" />
        </mxCell>
        <mxCell id="a1PtxgZvtLgDx27lb-P5-180" value="Software requirements incl. engine and IDE" style="rounded=1;fontStyle=1;fontFamily=Tahoma;fontSize=19;whiteSpace=wrap;" parent="1" vertex="1">
          <mxGeometry x="720" y="1580" width="180" height="80" as="geometry" />
        </mxCell>
        <mxCell id="a1PtxgZvtLgDx27lb-P5-201" value="" style="edgeStyle=segmentEdgeStyle;endArrow=classic;html=1;curved=0;rounded=0;endSize=8;startSize=8;exitX=0.5;exitY=1;exitDx=0;exitDy=0;entryX=0;entryY=0.5;entryDx=0;entryDy=0;" parent="1" source="12" target="a1PtxgZvtLgDx27lb-P5-182" edge="1">
          <mxGeometry width="50" height="50" relative="1" as="geometry">
            <mxPoint x="840" y="810" as="sourcePoint" />
            <mxPoint x="890" y="760" as="targetPoint" />
            <Array as="points">
              <mxPoint x="675" y="1290" />
            </Array>
          </mxGeometry>
        </mxCell>
        <mxCell id="a1PtxgZvtLgDx27lb-P5-202" value="" style="edgeStyle=segmentEdgeStyle;endArrow=classic;html=1;curved=0;rounded=0;endSize=8;startSize=8;exitX=0.5;exitY=1;exitDx=0;exitDy=0;entryX=0;entryY=0.5;entryDx=0;entryDy=0;" parent="1" source="12" target="a1PtxgZvtLgDx27lb-P5-184" edge="1">
          <mxGeometry width="50" height="50" relative="1" as="geometry">
            <mxPoint x="685" y="340" as="sourcePoint" />
            <mxPoint x="630" y="1190" as="targetPoint" />
            <Array as="points">
              <mxPoint x="675" y="1400" />
            </Array>
          </mxGeometry>
        </mxCell>
        <mxCell id="a1PtxgZvtLgDx27lb-P5-203" value="" style="edgeStyle=segmentEdgeStyle;endArrow=classic;html=1;curved=0;rounded=0;endSize=8;startSize=8;exitX=0.5;exitY=1;exitDx=0;exitDy=0;entryX=0;entryY=0.5;entryDx=0;entryDy=0;" parent="1" source="12" target="a1PtxgZvtLgDx27lb-P5-183" edge="1">
          <mxGeometry width="50" height="50" relative="1" as="geometry">
            <mxPoint x="695" y="350" as="sourcePoint" />
            <mxPoint x="630" y="1300" as="targetPoint" />
            <Array as="points">
              <mxPoint x="675" y="1510" />
            </Array>
          </mxGeometry>
        </mxCell>
        <mxCell id="a1PtxgZvtLgDx27lb-P5-204" value="" style="edgeStyle=segmentEdgeStyle;endArrow=classic;html=1;curved=0;rounded=0;endSize=8;startSize=8;exitX=0.5;exitY=1;exitDx=0;exitDy=0;entryX=0;entryY=0.5;entryDx=0;entryDy=0;" parent="1" source="12" target="a1PtxgZvtLgDx27lb-P5-180" edge="1">
          <mxGeometry width="50" height="50" relative="1" as="geometry">
            <mxPoint x="705" y="360" as="sourcePoint" />
            <mxPoint x="630" y="1410" as="targetPoint" />
            <Array as="points">
              <mxPoint x="675" y="1620" />
            </Array>
          </mxGeometry>
        </mxCell>
        <mxCell id="a1PtxgZvtLgDx27lb-P5-176" value="Production schedule and progress monitoring" style="rounded=1;fontStyle=1;fontFamily=Tahoma;fontSize=19;whiteSpace=wrap;" parent="1" vertex="1">
          <mxGeometry x="1390" y="1250" width="190" height="80" as="geometry" />
        </mxCell>
        <mxCell id="a1PtxgZvtLgDx27lb-P5-205" value="" style="edgeStyle=segmentEdgeStyle;endArrow=classic;html=1;curved=0;rounded=0;endSize=8;startSize=8;entryX=0;entryY=0.5;entryDx=0;entryDy=0;exitX=0.5;exitY=1;exitDx=0;exitDy=0;" parent="1" source="a1PtxgZvtLgDx27lb-P5-127" target="a1PtxgZvtLgDx27lb-P5-175" edge="1">
          <mxGeometry width="50" height="50" relative="1" as="geometry">
            <mxPoint x="1250" y="350" as="sourcePoint" />
            <mxPoint x="1305" y="850" as="targetPoint" />
            <Array as="points">
              <mxPoint x="1355" y="835" />
            </Array>
          </mxGeometry>
        </mxCell>
        <mxCell id="a1PtxgZvtLgDx27lb-P5-206" value="" style="edgeStyle=segmentEdgeStyle;endArrow=classic;html=1;curved=0;rounded=0;endSize=8;startSize=8;entryX=1;entryY=0.5;entryDx=0;entryDy=0;exitX=0.5;exitY=1;exitDx=0;exitDy=0;" parent="1" source="a1PtxgZvtLgDx27lb-P5-127" target="a1PtxgZvtLgDx27lb-P5-174" edge="1">
          <mxGeometry width="50" height="50" relative="1" as="geometry">
            <mxPoint x="1520" y="340" as="sourcePoint" />
            <mxPoint x="1350" y="840" as="targetPoint" />
            <Array as="points">
              <mxPoint x="1355" y="835" />
            </Array>
          </mxGeometry>
        </mxCell>
        <mxCell id="a1PtxgZvtLgDx27lb-P5-208" value="" style="edgeStyle=segmentEdgeStyle;endArrow=classic;html=1;curved=0;rounded=0;endSize=8;startSize=8;entryX=0;entryY=0.5;entryDx=0;entryDy=0;exitX=0.5;exitY=1;exitDx=0;exitDy=0;" parent="1" source="a1PtxgZvtLgDx27lb-P5-127" target="a1PtxgZvtLgDx27lb-P5-176" edge="1">
          <mxGeometry width="50" height="50" relative="1" as="geometry">
            <mxPoint x="1275" y="710" as="sourcePoint" />
            <mxPoint x="1340" y="1210" as="targetPoint" />
            <Array as="points">
              <mxPoint x="1355" y="1290" />
            </Array>
          </mxGeometry>
        </mxCell>
        <mxCell id="a1PtxgZvtLgDx27lb-P5-211" value="" style="edgeStyle=segmentEdgeStyle;endArrow=classic;html=1;curved=0;rounded=0;endSize=8;startSize=8;entryX=0;entryY=0.5;entryDx=0;entryDy=0;exitX=0.5;exitY=1;exitDx=0;exitDy=0;" parent="1" source="4" target="a1PtxgZvtLgDx27lb-P5-209" edge="1">
          <mxGeometry width="50" height="50" relative="1" as="geometry">
            <mxPoint x="1800.04" y="360" as="sourcePoint" />
            <mxPoint x="1875.04" y="1320" as="targetPoint" />
            <Array as="points">
              <mxPoint x="2015" y="980" />
            </Array>
          </mxGeometry>
        </mxCell>
        <mxCell id="a1PtxgZvtLgDx27lb-P5-218" value="" style="edgeStyle=segmentEdgeStyle;endArrow=classic;html=1;curved=0;rounded=0;endSize=8;startSize=8;entryX=1;entryY=0.5;entryDx=0;entryDy=0;exitX=0.5;exitY=1;exitDx=0;exitDy=0;" parent="1" source="4" target="a1PtxgZvtLgDx27lb-P5-216" edge="1">
          <mxGeometry width="50" height="50" relative="1" as="geometry">
            <mxPoint x="2025" y="340" as="sourcePoint" />
            <mxPoint x="2240" y="1090" as="targetPoint" />
            <Array as="points">
              <mxPoint x="2015" y="785" />
            </Array>
          </mxGeometry>
        </mxCell>
        <mxCell id="a1PtxgZvtLgDx27lb-P5-226" value="" style="edgeStyle=segmentEdgeStyle;endArrow=classic;html=1;curved=0;rounded=0;endSize=8;startSize=8;exitX=0.5;exitY=1;exitDx=0;exitDy=0;entryX=0;entryY=0.5;entryDx=0;entryDy=0;" parent="1" source="4" target="a1PtxgZvtLgDx27lb-P5-225" edge="1">
          <mxGeometry width="50" height="50" relative="1" as="geometry">
            <mxPoint x="2025" y="340" as="sourcePoint" />
            <mxPoint x="2080" y="990" as="targetPoint" />
            <Array as="points">
              <mxPoint x="2015" y="580" />
            </Array>
          </mxGeometry>
        </mxCell>
        <mxCell id="a1PtxgZvtLgDx27lb-P5-228" value="" style="edgeStyle=segmentEdgeStyle;endArrow=classic;html=1;curved=0;rounded=0;endSize=8;startSize=8;entryX=0;entryY=0.5;entryDx=0;entryDy=0;exitX=0.5;exitY=1;exitDx=0;exitDy=0;" parent="1" source="4" target="a1PtxgZvtLgDx27lb-P5-227" edge="1">
          <mxGeometry width="50" height="50" relative="1" as="geometry">
            <mxPoint x="2100" y="390" as="sourcePoint" />
            <mxPoint x="2070" y="1080" as="targetPoint" />
            <Array as="points">
              <mxPoint x="2015" y="1080" />
            </Array>
          </mxGeometry>
        </mxCell>
        <mxCell id="a1PtxgZvtLgDx27lb-P5-229" value="" style="edgeStyle=segmentEdgeStyle;endArrow=classic;html=1;curved=0;rounded=0;endSize=8;startSize=8;exitX=0.5;exitY=1;exitDx=0;exitDy=0;entryX=0;entryY=0.5;entryDx=0;entryDy=0;" parent="1" source="4" target="a1PtxgZvtLgDx27lb-P5-215" edge="1">
          <mxGeometry width="50" height="50" relative="1" as="geometry">
            <mxPoint x="2015" y="430" as="sourcePoint" />
            <mxPoint x="2070" y="1100" as="targetPoint" />
            <Array as="points">
              <mxPoint x="2015" y="1180" />
            </Array>
          </mxGeometry>
        </mxCell>
        <mxCell id="a1PtxgZvtLgDx27lb-P5-231" value="Oral presentation" style="rounded=1;fontStyle=1;fontFamily=Tahoma;fontSize=19;whiteSpace=wrap;" parent="1" vertex="1">
          <mxGeometry x="2069.9964495457325" y="1730" width="216.65947638019352" height="80" as="geometry" />
        </mxCell>
        <mxCell id="a1PtxgZvtLgDx27lb-P5-232" value="Other" style="fillColor=#ffcd28;strokeColor=#d79b00;opacity=30;fontSize=19;gradientColor=#ffa500;" parent="1" vertex="1">
          <mxGeometry x="-230" y="1690" width="210" height="160" as="geometry" />
        </mxCell>
        <mxCell id="a1PtxgZvtLgDx27lb-P5-234" value="" style="edgeStyle=segmentEdgeStyle;endArrow=classic;html=1;curved=0;rounded=0;endSize=8;startSize=8;exitX=0.5;exitY=1;exitDx=0;exitDy=0;entryX=0;entryY=0.5;entryDx=0;entryDy=0;" parent="1" source="4" target="a1PtxgZvtLgDx27lb-P5-231" edge="1">
          <mxGeometry width="50" height="50" relative="1" as="geometry">
            <mxPoint x="2015" y="920" as="sourcePoint" />
            <mxPoint x="2070" y="1770" as="targetPoint" />
            <Array as="points">
              <mxPoint x="2015" y="1770" />
            </Array>
          </mxGeometry>
        </mxCell>
      </root>
    </mxGraphModel>
  </diagram>
</mxfile>
